<svg width="942" height="189" viewBox="0 0 942 189" fill="none" xmlns="http://www.w3.org/2000/svg">
<path d="M24.9648 3.8125V146H0.453125V3.8125H24.9648ZM110.414 3.8125L52.7969 72.2695L19.9844 107.035L15.6875 82.7188L39.125 53.8125L80.5312 3.8125H110.414ZM84.0469 146L37.2695 78.6172L54.1641 61.918L113.148 146H84.0469ZM148.109 60.4531V146H124.574V40.3359H147.035L148.109 60.4531ZM180.434 39.6523L180.238 61.5273C178.806 61.2669 177.243 61.0716 175.551 60.9414C173.923 60.8112 172.296 60.7461 170.668 60.7461C166.632 60.7461 163.083 61.332 160.023 62.5039C156.964 63.6107 154.392 65.2383 152.309 67.3867C150.29 69.4701 148.728 72.0091 147.621 75.0039C146.514 77.9987 145.863 81.3516 145.668 85.0625L140.297 85.4531C140.297 78.8125 140.948 72.6602 142.25 66.9961C143.552 61.332 145.505 56.3516 148.109 52.0547C150.779 47.7578 154.099 44.4049 158.07 41.9961C162.107 39.5872 166.762 38.3828 172.035 38.3828C173.467 38.3828 174.997 38.513 176.625 38.7734C178.318 39.0339 179.587 39.3268 180.434 39.6523ZM227.602 134.477L256.312 40.3359H281.508L239.125 162.113C238.148 164.717 236.879 167.549 235.316 170.609C233.754 173.669 231.703 176.566 229.164 179.301C226.69 182.1 223.598 184.346 219.887 186.039C216.176 187.797 211.684 188.676 206.41 188.676C204.327 188.676 202.309 188.48 200.355 188.09C198.467 187.764 196.677 187.406 194.984 187.016L194.887 169.047C195.538 169.112 196.319 169.177 197.23 169.242C198.207 169.307 198.988 169.34 199.574 169.34C203.48 169.34 206.736 168.852 209.34 167.875C211.944 166.964 214.06 165.466 215.688 163.383C217.38 161.299 218.812 158.5 219.984 154.984L227.602 134.477ZM211.391 40.3359L236.488 119.438L240.688 144.242L224.379 148.441L186 40.3359H211.391ZM318.617 60.6484V186.625H295.082V40.3359H316.762L318.617 60.6484ZM387.465 92.1914V94.2422C387.465 101.924 386.553 109.053 384.73 115.629C382.973 122.139 380.336 127.836 376.82 132.719C373.37 137.536 369.105 141.28 364.027 143.949C358.949 146.618 353.09 147.953 346.449 147.953C339.874 147.953 334.112 146.749 329.164 144.34C324.281 141.866 320.147 138.383 316.762 133.891C313.376 129.398 310.642 124.125 308.559 118.07C306.54 111.951 305.108 105.245 304.262 97.9531V90.043C305.108 82.2956 306.54 75.2643 308.559 68.9492C310.642 62.6341 313.376 57.1979 316.762 52.6406C320.147 48.0833 324.281 44.5677 329.164 42.0938C334.047 39.6198 339.743 38.3828 346.254 38.3828C352.895 38.3828 358.786 39.6849 363.93 42.2891C369.073 44.8281 373.402 48.474 376.918 53.2266C380.434 57.9141 383.07 63.5781 384.828 70.2188C386.586 76.7943 387.465 84.1185 387.465 92.1914ZM363.93 94.2422V92.1914C363.93 87.3086 363.474 82.7839 362.562 78.6172C361.651 74.3854 360.219 70.6745 358.266 67.4844C356.312 64.2943 353.806 61.8203 350.746 60.0625C347.751 58.2396 344.138 57.3281 339.906 57.3281C335.74 57.3281 332.159 58.0443 329.164 59.4766C326.169 60.8438 323.663 62.7643 321.645 65.2383C319.626 67.7122 318.064 70.6094 316.957 73.9297C315.85 77.1849 315.069 80.7331 314.613 84.5742V103.52C315.395 108.207 316.729 112.504 318.617 116.41C320.505 120.316 323.174 123.441 326.625 125.785C330.141 128.064 334.633 129.203 340.102 129.203C344.333 129.203 347.947 128.292 350.941 126.469C353.936 124.646 356.378 122.139 358.266 118.949C360.219 115.694 361.651 111.951 362.562 107.719C363.474 103.487 363.93 98.9948 363.93 94.2422ZM455.922 40.3359V57.5234H396.352V40.3359H455.922ZM413.539 14.457H437.074V116.801C437.074 120.056 437.53 122.562 438.441 124.32C439.418 126.013 440.753 127.152 442.445 127.738C444.138 128.324 446.124 128.617 448.402 128.617C450.03 128.617 451.592 128.52 453.09 128.324C454.587 128.129 455.792 127.934 456.703 127.738L456.801 145.707C454.848 146.293 452.569 146.814 449.965 147.27C447.426 147.725 444.496 147.953 441.176 147.953C435.772 147.953 430.987 147.009 426.82 145.121C422.654 143.168 419.398 140.01 417.055 135.648C414.711 131.286 413.539 125.492 413.539 118.266V14.457ZM467.25 94.3398V92.0938C467.25 84.4766 468.357 77.4128 470.57 70.9023C472.784 64.3268 475.974 58.6302 480.141 53.8125C484.372 48.9297 489.516 45.1536 495.57 42.4844C501.69 39.75 508.591 38.3828 516.273 38.3828C524.021 38.3828 530.922 39.75 536.977 42.4844C543.096 45.1536 548.272 48.9297 552.504 53.8125C556.736 58.6302 559.958 64.3268 562.172 70.9023C564.385 77.4128 565.492 84.4766 565.492 92.0938V94.3398C565.492 101.957 564.385 109.021 562.172 115.531C559.958 122.042 556.736 127.738 552.504 132.621C548.272 137.439 543.129 141.215 537.074 143.949C531.02 146.618 524.151 147.953 516.469 147.953C508.721 147.953 501.788 146.618 495.668 143.949C489.613 141.215 484.47 137.439 480.238 132.621C476.007 127.738 472.784 122.042 470.57 115.531C468.357 109.021 467.25 101.957 467.25 94.3398ZM490.785 92.0938V94.3398C490.785 99.0924 491.273 103.585 492.25 107.816C493.227 112.048 494.757 115.759 496.84 118.949C498.923 122.139 501.592 124.646 504.848 126.469C508.103 128.292 511.977 129.203 516.469 129.203C520.831 129.203 524.607 128.292 527.797 126.469C531.052 124.646 533.721 122.139 535.805 118.949C537.888 115.759 539.418 112.048 540.395 107.816C541.436 103.585 541.957 99.0924 541.957 94.3398V92.0938C541.957 87.4062 541.436 82.9792 540.395 78.8125C539.418 74.5807 537.855 70.8372 535.707 67.582C533.624 64.3268 530.954 61.7878 527.699 59.9648C524.509 58.0768 520.701 57.1328 516.273 57.1328C511.846 57.1328 508.005 58.0768 504.75 59.9648C501.56 61.7878 498.923 64.3268 496.84 67.582C494.757 70.8372 493.227 74.5807 492.25 78.8125C491.273 82.9792 490.785 87.4062 490.785 92.0938Z" fill="#4169E1"/>
<path d="M628.383 129.203C632.224 129.203 635.674 128.454 638.734 126.957C641.859 125.395 644.366 123.246 646.254 120.512C648.207 117.777 649.281 114.62 649.477 111.039H671.645C671.514 117.875 669.496 124.092 665.59 129.691C661.684 135.29 656.508 139.75 650.062 143.07C643.617 146.326 636.488 147.953 628.676 147.953C620.603 147.953 613.572 146.586 607.582 143.852C601.592 141.052 596.612 137.211 592.641 132.328C588.669 127.445 585.674 121.814 583.656 115.434C581.703 109.053 580.727 102.217 580.727 94.9258V91.5078C580.727 84.2161 581.703 77.3802 583.656 71C585.674 64.5547 588.669 58.8906 592.641 54.0078C596.612 49.125 601.592 45.3164 607.582 42.582C613.572 39.7826 620.57 38.3828 628.578 38.3828C637.042 38.3828 644.464 40.0755 650.844 43.4609C657.224 46.7812 662.237 51.4362 665.883 57.4258C669.594 63.3503 671.514 70.2513 671.645 78.1289H649.477C649.281 74.2227 648.305 70.707 646.547 67.582C644.854 64.3919 642.445 61.8529 639.32 59.9648C636.26 58.0768 632.582 57.1328 628.285 57.1328C623.533 57.1328 619.594 58.1094 616.469 60.0625C613.344 61.9505 610.902 64.5547 609.145 67.875C607.387 71.1302 606.117 74.8086 605.336 78.9102C604.62 82.9466 604.262 87.1458 604.262 91.5078V94.9258C604.262 99.2878 604.62 103.52 605.336 107.621C606.052 111.723 607.289 115.401 609.047 118.656C610.87 121.846 613.344 124.418 616.469 126.371C619.594 128.259 623.565 129.203 628.383 129.203ZM685.219 94.3398V92.0938C685.219 84.4766 686.326 77.4128 688.539 70.9023C690.753 64.3268 693.943 58.6302 698.109 53.8125C702.341 48.9297 707.484 45.1536 713.539 42.4844C719.659 39.75 726.56 38.3828 734.242 38.3828C741.99 38.3828 748.891 39.75 754.945 42.4844C761.065 45.1536 766.241 48.9297 770.473 53.8125C774.704 58.6302 777.927 64.3268 780.141 70.9023C782.354 77.4128 783.461 84.4766 783.461 92.0938V94.3398C783.461 101.957 782.354 109.021 780.141 115.531C777.927 122.042 774.704 127.738 770.473 132.621C766.241 137.439 761.098 141.215 755.043 143.949C748.988 146.618 742.12 147.953 734.438 147.953C726.69 147.953 719.757 146.618 713.637 143.949C707.582 141.215 702.439 137.439 698.207 132.621C693.975 127.738 690.753 122.042 688.539 115.531C686.326 109.021 685.219 101.957 685.219 94.3398ZM708.754 92.0938V94.3398C708.754 99.0924 709.242 103.585 710.219 107.816C711.195 112.048 712.725 115.759 714.809 118.949C716.892 122.139 719.561 124.646 722.816 126.469C726.072 128.292 729.945 129.203 734.438 129.203C738.799 129.203 742.576 128.292 745.766 126.469C749.021 124.646 751.69 122.139 753.773 118.949C755.857 115.759 757.387 112.048 758.363 107.816C759.405 103.585 759.926 99.0924 759.926 94.3398V92.0938C759.926 87.4062 759.405 82.9792 758.363 78.8125C757.387 74.5807 755.824 70.8372 753.676 67.582C751.592 64.3268 748.923 61.7878 745.668 59.9648C742.478 58.0768 738.669 57.1328 734.242 57.1328C729.815 57.1328 725.974 58.0768 722.719 59.9648C719.529 61.7878 716.892 64.3268 714.809 67.582C712.725 70.8372 711.195 74.5807 710.219 78.8125C709.242 82.9792 708.754 87.4062 708.754 92.0938ZM828.383 40.3359V146H804.75V40.3359H828.383ZM803.188 12.6016C803.188 9.02083 804.359 6.05859 806.703 3.71484C809.112 1.30599 812.432 0.101562 816.664 0.101562C820.831 0.101562 824.118 1.30599 826.527 3.71484C828.936 6.05859 830.141 9.02083 830.141 12.6016C830.141 16.1172 828.936 19.0469 826.527 21.3906C824.118 23.7344 820.831 24.9062 816.664 24.9062C812.432 24.9062 809.112 23.7344 806.703 21.3906C804.359 19.0469 803.188 16.1172 803.188 12.6016ZM877.504 62.8945V146H853.969V40.3359H876.137L877.504 62.8945ZM873.305 89.2617L865.688 89.1641C865.753 81.6771 866.794 74.8086 868.812 68.5586C870.896 62.3086 873.76 56.9375 877.406 52.4453C881.117 47.9531 885.544 44.5026 890.688 42.0938C895.831 39.6198 901.56 38.3828 907.875 38.3828C912.953 38.3828 917.543 39.099 921.645 40.5312C925.811 41.8984 929.359 44.1445 932.289 47.2695C935.284 50.3945 937.562 54.4635 939.125 59.4766C940.688 64.4245 941.469 70.5117 941.469 77.7383V146H917.836V77.6406C917.836 72.5625 917.087 68.5586 915.59 65.6289C914.158 62.6341 912.042 60.5182 909.242 59.2812C906.508 57.9792 903.09 57.3281 898.988 57.3281C894.952 57.3281 891.339 58.1745 888.148 59.8672C884.958 61.5599 882.257 63.8711 880.043 66.8008C877.895 69.7305 876.234 73.1159 875.062 76.957C873.891 80.7982 873.305 84.8997 873.305 89.2617Z" fill="url(#paint0_linear_13_2)"/>
<defs>
<linearGradient id="paint0_linear_13_2" x1="470" y1="-39" x2="470" y2="195" gradientUnits="userSpaceOnUse">
<stop offset="0.281526" stop-color="#4169E1"/>
<stop offset="0.986848" stop-color="#4169E1" stop-opacity="0"/>
</linearGradient>
</defs>
</svg>
